<svg xmlns="http://www.w3.org/2000/svg" xmlns:xlink="http://www.w3.org/1999/xlink" width="500" zoomAndPan="magnify" viewBox="0 0 375 374.999991" height="500" preserveAspectRatio="xMidYMid meet" version="1.0"><defs><clipPath id="4db0fd10b6"><path d="M 85 83.976562 L 290 83.976562 L 290 288 L 85 288 Z M 85 83.976562 " clip-rule="nonzero"/></clipPath></defs><g clip-path="url(#4db0fd10b6)"><path fill="#194866" d="M 187.5 83.976562 C 184.648438 83.972656 181.804688 84.089844 178.964844 84.328125 C 176.125 84.566406 173.296875 84.921875 170.488281 85.394531 C 167.679688 85.867188 164.890625 86.457031 162.132812 87.164062 C 159.371094 87.875 156.644531 88.695312 153.953125 89.632812 C 151.261719 90.566406 148.613281 91.613281 146.007812 92.773438 C 143.40625 93.929688 140.855469 95.195312 138.355469 96.570312 C 135.859375 97.941406 133.421875 99.414062 131.046875 100.992188 C 128.675781 102.566406 126.371094 104.242188 124.136719 106.011719 C 121.902344 107.78125 119.746094 109.640625 117.667969 111.589844 C 115.589844 113.542969 113.597656 115.574219 111.691406 117.695312 C 109.785156 119.8125 107.96875 122.003906 106.246094 124.277344 C 104.523438 126.546875 102.898438 128.882812 101.371094 131.289062 C 99.84375 133.695312 98.421875 136.160156 97.101562 138.6875 C 95.78125 141.214844 94.570312 143.789062 93.464844 146.417969 C 92.359375 149.042969 91.367188 151.714844 90.488281 154.425781 C 89.609375 157.136719 88.84375 159.878906 88.191406 162.652344 C 87.542969 165.425781 87.007812 168.222656 86.59375 171.042969 C 86.179688 173.863281 85.882812 176.695312 85.703125 179.539062 C 85.527344 182.382812 85.46875 185.230469 85.527344 188.078125 C 85.589844 190.929688 85.769531 193.769531 86.066406 196.605469 C 86.367188 199.4375 86.785156 202.253906 87.320312 205.054688 C 87.855469 207.855469 88.507812 210.625 89.273438 213.371094 C 90.042969 216.113281 90.925781 218.820312 91.917969 221.492188 C 92.914062 224.164062 94.019531 226.789062 95.234375 229.367188 C 96.449219 231.941406 97.769531 234.464844 99.199219 236.933594 C 100.625 239.398438 102.152344 241.804688 103.78125 244.140625 C 105.410156 246.480469 107.132812 248.746094 108.949219 250.941406 C 110.769531 253.136719 112.675781 255.25 114.671875 257.285156 C 116.667969 259.320312 118.746094 261.265625 120.902344 263.125 C 123.0625 264.988281 125.296875 266.753906 127.601562 268.425781 C 129.910156 270.097656 132.285156 271.671875 134.722656 273.144531 C 137.164062 274.621094 139.660156 275.988281 142.214844 277.253906 C 142.511719 277.40625 142.816406 277.542969 143.132812 277.660156 C 146.570312 279.351562 150.097656 280.835938 153.707031 282.125 C 157.320312 283.410156 160.992188 284.488281 164.726562 285.355469 C 168.457031 286.21875 172.230469 286.871094 176.035156 287.308594 C 179.84375 287.746094 183.664062 287.960938 187.5 287.960938 C 191.332031 287.960938 195.152344 287.746094 198.960938 287.308594 C 202.769531 286.871094 206.539062 286.21875 210.273438 285.355469 C 214.003906 284.488281 217.679688 283.410156 221.289062 282.125 C 224.898438 280.835938 228.425781 279.351562 231.867188 277.660156 C 232.179688 277.542969 232.484375 277.40625 232.785156 277.253906 C 235.335938 275.988281 237.835938 274.621094 240.273438 273.144531 C 242.710938 271.671875 245.085938 270.097656 247.394531 268.425781 C 249.699219 266.753906 251.933594 264.988281 254.09375 263.125 C 256.253906 261.265625 258.328125 259.320312 260.324219 257.285156 C 262.320312 255.25 264.226562 253.136719 266.046875 250.941406 C 267.863281 248.746094 269.589844 246.480469 271.214844 244.140625 C 272.84375 241.800781 274.371094 239.398438 275.800781 236.933594 C 277.226562 234.464844 278.546875 231.941406 279.761719 229.367188 C 280.976562 226.789062 282.082031 224.164062 283.078125 221.492188 C 284.070312 218.820312 284.953125 216.113281 285.722656 213.371094 C 286.488281 210.625 287.140625 207.855469 287.675781 205.054688 C 288.210938 202.253906 288.628906 199.4375 288.929688 196.605469 C 289.226562 193.769531 289.40625 190.929688 289.46875 188.078125 C 289.53125 185.230469 289.472656 182.382812 289.292969 179.539062 C 289.113281 176.695312 288.816406 173.863281 288.402344 171.042969 C 287.988281 168.222656 287.453125 165.425781 286.804688 162.652344 C 286.152344 159.878906 285.390625 157.132812 284.507812 154.425781 C 283.628906 151.714844 282.636719 149.042969 281.53125 146.417969 C 280.429688 143.789062 279.214844 141.214844 277.894531 138.6875 C 276.574219 136.160156 275.152344 133.695312 273.625 131.289062 C 272.097656 128.882812 270.472656 126.546875 268.75 124.273438 C 267.027344 122.003906 265.210938 119.8125 263.304688 117.695312 C 261.398438 115.574219 259.40625 113.542969 257.328125 111.589844 C 255.25 109.640625 253.09375 107.78125 250.859375 106.011719 C 248.625 104.242188 246.320312 102.566406 243.949219 100.992188 C 241.574219 99.414062 239.136719 97.941406 236.640625 96.570312 C 234.140625 95.195312 231.589844 93.929688 228.988281 92.773438 C 226.382812 91.613281 223.734375 90.566406 221.042969 89.632812 C 218.351562 88.695312 215.625 87.875 212.863281 87.164062 C 210.105469 86.457031 207.320312 85.867188 204.507812 85.394531 C 201.699219 84.921875 198.875 84.566406 196.035156 84.328125 C 193.191406 84.089844 190.347656 83.972656 187.5 83.976562 Z M 187.5 124.773438 C 188.5 124.773438 189.5 124.820312 190.496094 124.921875 C 191.496094 125.019531 192.484375 125.164062 193.46875 125.359375 C 194.449219 125.554688 195.421875 125.800781 196.378906 126.089844 C 197.339844 126.382812 198.28125 126.71875 199.207031 127.101562 C 200.132812 127.484375 201.039062 127.914062 201.921875 128.386719 C 202.804688 128.859375 203.664062 129.371094 204.496094 129.929688 C 205.332031 130.488281 206.136719 131.082031 206.910156 131.71875 C 207.683594 132.355469 208.425781 133.027344 209.132812 133.734375 C 209.84375 134.445312 210.515625 135.183594 211.152344 135.960938 C 211.785156 136.734375 212.382812 137.539062 212.941406 138.371094 C 213.496094 139.203125 214.011719 140.0625 214.484375 140.945312 C 214.957031 141.832031 215.382812 142.734375 215.765625 143.660156 C 216.152344 144.585938 216.488281 145.53125 216.777344 146.488281 C 217.070312 147.449219 217.3125 148.417969 217.507812 149.402344 C 217.703125 150.382812 217.851562 151.375 217.949219 152.371094 C 218.046875 153.371094 218.097656 154.367188 218.097656 155.371094 C 218.097656 156.375 218.046875 157.371094 217.949219 158.371094 C 217.851562 159.367188 217.703125 160.359375 217.507812 161.339844 C 217.3125 162.324219 217.070312 163.292969 216.777344 164.253906 C 216.488281 165.210938 216.152344 166.15625 215.765625 167.082031 C 215.382812 168.007812 214.957031 168.910156 214.484375 169.792969 C 214.011719 170.679688 213.496094 171.539062 212.941406 172.371094 C 212.382812 173.203125 211.785156 174.007812 211.152344 174.78125 C 210.515625 175.558594 209.84375 176.296875 209.132812 177.007812 C 208.425781 177.714844 207.683594 178.386719 206.910156 179.023438 C 206.136719 179.660156 205.332031 180.253906 204.496094 180.8125 C 203.664062 181.367188 202.804688 181.882812 201.921875 182.355469 C 201.039062 182.828125 200.132812 183.257812 199.207031 183.640625 C 198.28125 184.023438 197.339844 184.359375 196.378906 184.652344 C 195.421875 184.941406 194.449219 185.1875 193.46875 185.382812 C 192.484375 185.578125 191.496094 185.722656 190.496094 185.820312 C 189.5 185.921875 188.5 185.96875 187.5 185.96875 C 186.496094 185.96875 185.496094 185.921875 184.5 185.820312 C 183.5 185.722656 182.511719 185.578125 181.527344 185.382812 C 180.546875 185.1875 179.574219 184.941406 178.617188 184.652344 C 177.65625 184.359375 176.714844 184.023438 175.789062 183.640625 C 174.863281 183.257812 173.957031 182.828125 173.074219 182.355469 C 172.191406 181.882812 171.332031 181.367188 170.5 180.8125 C 169.664062 180.253906 168.863281 179.660156 168.085938 179.023438 C 167.3125 178.386719 166.570312 177.714844 165.863281 177.007812 C 165.152344 176.296875 164.480469 175.558594 163.847656 174.78125 C 163.210938 174.007812 162.613281 173.203125 162.058594 172.371094 C 161.5 171.539062 160.984375 170.679688 160.511719 169.792969 C 160.039062 168.910156 159.613281 168.007812 159.230469 167.082031 C 158.847656 166.15625 158.507812 165.210938 158.21875 164.253906 C 157.925781 163.292969 157.683594 162.324219 157.488281 161.339844 C 157.292969 160.359375 157.144531 159.367188 157.046875 158.371094 C 156.949219 157.371094 156.898438 156.375 156.898438 155.371094 C 156.902344 154.371094 156.953125 153.371094 157.054688 152.375 C 157.15625 151.378906 157.304688 150.390625 157.503906 149.40625 C 157.699219 148.425781 157.945312 147.457031 158.238281 146.5 C 158.53125 145.542969 158.867188 144.601562 159.253906 143.675781 C 159.636719 142.75 160.066406 141.847656 160.539062 140.964844 C 161.011719 140.082031 161.527344 139.226562 162.085938 138.394531 C 162.640625 137.5625 163.238281 136.757812 163.871094 135.984375 C 164.507812 135.210938 165.179688 134.46875 165.886719 133.761719 C 166.597656 133.054688 167.335938 132.382812 168.109375 131.746094 C 168.886719 131.109375 169.6875 130.515625 170.519531 129.957031 C 171.351562 129.398438 172.210938 128.886719 173.09375 128.414062 C 173.976562 127.9375 174.878906 127.511719 175.804688 127.125 C 176.726562 126.742188 177.667969 126.402344 178.625 126.109375 C 179.582031 125.816406 180.554688 125.574219 181.535156 125.375 C 182.515625 125.179688 183.503906 125.027344 184.503906 124.929688 C 185.5 124.828125 186.496094 124.777344 187.5 124.773438 Z M 218.097656 261.546875 C 215.75 262.464844 213.300781 263.382812 210.855469 264.097656 C 208.609375 264.808594 206.265625 265.421875 203.917969 265.933594 C 203.714844 265.933594 203.511719 266.035156 203.308594 266.035156 C 200.859375 266.542969 198.308594 266.851562 195.863281 267.15625 L 195.554688 267.15625 C 190.183594 267.703125 184.8125 267.703125 179.441406 267.15625 L 179.136719 267.15625 C 176.6875 266.851562 174.136719 266.542969 171.6875 266.035156 C 171.484375 266.035156 171.28125 265.933594 171.078125 265.933594 C 168.730469 265.421875 166.386719 264.808594 164.140625 264.097656 C 161.695312 263.382812 159.246094 262.464844 156.898438 261.546875 C 149.496094 258.601562 142.695312 254.625 136.5 249.613281 L 136.5 247.164062 C 136.5 245.496094 136.582031 243.828125 136.746094 242.167969 C 136.910156 240.503906 137.15625 238.855469 137.480469 237.214844 C 137.808594 235.578125 138.210938 233.960938 138.699219 232.363281 C 139.183594 230.761719 139.746094 229.191406 140.382812 227.648438 C 141.023438 226.105469 141.734375 224.597656 142.523438 223.125 C 143.308594 221.652344 144.167969 220.222656 145.097656 218.832031 C 146.023438 217.445312 147.019531 216.105469 148.078125 214.8125 C 149.136719 213.523438 150.257812 212.285156 151.4375 211.105469 C 152.621094 209.925781 153.855469 208.804688 155.144531 207.746094 C 156.4375 206.683594 157.777344 205.691406 159.167969 204.761719 C 160.554688 203.835938 161.984375 202.976562 163.457031 202.191406 C 164.929688 201.402344 166.441406 200.691406 167.984375 200.050781 C 169.527344 199.410156 171.097656 198.847656 172.695312 198.363281 C 174.292969 197.878906 175.910156 197.472656 177.550781 197.148438 C 179.1875 196.824219 180.835938 196.578125 182.5 196.414062 C 184.160156 196.25 185.828125 196.167969 187.5 196.167969 C 189.167969 196.167969 190.835938 196.25 192.496094 196.414062 C 194.160156 196.578125 195.808594 196.824219 197.449219 197.148438 C 199.085938 197.472656 200.703125 197.878906 202.300781 198.363281 C 203.898438 198.847656 205.472656 199.410156 207.015625 200.050781 C 208.558594 200.691406 210.066406 201.402344 211.539062 202.191406 C 213.011719 202.976562 214.441406 203.835938 215.832031 204.761719 C 217.21875 205.691406 218.558594 206.683594 219.851562 207.746094 C 221.140625 208.804688 222.378906 209.925781 223.558594 211.105469 C 224.738281 212.285156 225.859375 213.523438 226.917969 214.8125 C 227.980469 216.105469 228.972656 217.445312 229.902344 218.832031 C 230.828125 220.222656 231.6875 221.652344 232.472656 223.125 C 233.261719 224.597656 233.972656 226.105469 234.613281 227.648438 C 235.253906 229.191406 235.8125 230.761719 236.300781 232.363281 C 236.785156 233.960938 237.1875 235.578125 237.515625 237.214844 C 237.839844 238.855469 238.085938 240.503906 238.25 242.167969 C 238.414062 243.828125 238.496094 245.496094 238.496094 247.164062 L 238.496094 249.613281 C 232.300781 254.625 225.5 258.601562 218.097656 261.546875 Z M 218.097656 261.546875 " fill-opacity="1" fill-rule="nonzero"/></g></svg>