<?xml version="1.0" encoding="UTF-8"?> <svg xmlns="http://www.w3.org/2000/svg" width="60" height="60" viewBox="0 0 60 60" fill="none"><rect x="0.5" y="0.5" width="59" height="59" rx="29.5" fill="#F98012"></rect><path d="M27.41 31H29.83C29.9616 31.0008 30.0921 30.9755 30.2139 30.9258C30.3357 30.876 30.4466 30.8027 30.54 30.71L34.12 27.13C34.3063 26.9426 34.4108 26.6892 34.4108 26.425C34.4108 26.1608 34.3063 25.9074 34.12 25.72L31.7 23.32C31.5126 23.1337 31.2592 23.0292 30.995 23.0292C30.7308 23.0292 30.4774 23.1337 30.29 23.32L26.71 26.9C26.5216 27.0846 26.4138 27.3362 26.41 27.6V30C26.41 30.2652 26.5154 30.5196 26.7029 30.7071C26.8904 30.8946 27.1448 31 27.41 31ZM28.41 28L31 25.44L32 26.44L29.42 29H28.42L28.41 28ZM39 32H38V22H39C39.2652 22 39.5196 21.8946 39.7071 21.7071C39.8946 21.5196 40 21.2652 40 21C40 20.7348 39.8946 20.4804 39.7071 20.2929C39.5196 20.1054 39.2652 20 39 20H21C20.7348 20 20.4804 20.1054 20.2929 20.2929C20.1054 20.4804 20 20.7348 20 21C20 21.2652 20.1054 21.5196 20.2929 21.7071C20.4804 21.8946 20.7348 22 21 22H22V32H21C20.7348 32 20.4804 32.1054 20.2929 32.2929C20.1054 32.4804 20 32.7348 20 33C20 33.2652 20.1054 33.5196 20.2929 33.7071C20.4804 33.8946 20.7348 34 21 34H29V35.15L24.45 38.15C24.2633 38.2655 24.1199 38.4393 24.0418 38.6445C23.9637 38.8496 23.9552 39.0748 24.0178 39.2852C24.0804 39.4957 24.2104 39.6797 24.3879 39.8089C24.5654 39.938 24.7805 40.0052 25 40C25.1966 40.0022 25.389 39.9428 25.55 39.83L29 37.55V39C29 39.2652 29.1054 39.5196 29.2929 39.7071C29.4804 39.8946 29.7348 40 30 40C30.2652 40 30.5196 39.8946 30.7071 39.7071C30.8946 39.5196 31 39.2652 31 39V37.55L34.45 39.83C34.611 39.9428 34.8034 40.0022 35 40C35.2136 39.9984 35.4212 39.9283 35.5921 39.8002C35.7631 39.672 35.8885 39.4925 35.95 39.2879C36.0115 39.0832 36.0058 38.8643 35.9338 38.6631C35.8619 38.462 35.7273 38.2892 35.55 38.17L31 35.17V34H39C39.2652 34 39.5196 33.8946 39.7071 33.7071C39.8946 33.5196 40 33.2652 40 33C40 32.7348 39.8946 32.4804 39.7071 32.2929C39.5196 32.1054 39.2652 32 39 32ZM36 32H24V22H36V32Z" fill="white"></path><rect x="0.5" y="0.5" width="59" height="59" rx="29.5" stroke="#F98012"></rect></svg> 