<?xml version="1.0" encoding="UTF-8"?> <svg xmlns="http://www.w3.org/2000/svg" width="66" height="65" viewBox="0 0 66 65" fill="none"><circle cx="23" cy="2.5" r="1.5" fill="#F98012"></circle><circle cx="33" cy="2.5" r="1.5" fill="#F98012"></circle><circle cx="43" cy="2.5" r="1.5" fill="#F98012"></circle><circle cx="13" cy="12.5" r="1.5" fill="#F98012"></circle><circle cx="23" cy="12.5" r="2.5" fill="#F98012"></circle><circle cx="33" cy="12.5" r="2.5" fill="#F98012"></circle><circle cx="43" cy="12.5" r="2.5" fill="#F98012"></circle><circle cx="53" cy="12.5" r="1.5" fill="#F98012"></circle><circle cx="3" cy="22.5" r="1.5" fill="#F98012"></circle><circle cx="13" cy="22.5" r="2.5" fill="#F98012"></circle><circle cx="23.5" cy="22" r="3" fill="#F98012"></circle><circle cx="33" cy="23" r="4" fill="#F98012"></circle><circle cx="43.5" cy="22" r="3" fill="#F98012"></circle><circle cx="53" cy="22.5" r="2.5" fill="#F98012"></circle><circle cx="63" cy="22.5" r="1.5" fill="#F98012"></circle><circle cx="3" cy="32.5" r="1.5" fill="#F98012"></circle><circle cx="13" cy="32.5" r="2.5" fill="#F98012"></circle><circle cx="23" cy="32" r="4" fill="#F98012"></circle><circle cx="33" cy="33" r="5" fill="#F98012"></circle><circle cx="43" cy="32" r="4" fill="#F98012"></circle><circle cx="53" cy="32.5" r="2.5" fill="#F98012"></circle><circle cx="63" cy="32.5" r="1.5" fill="#F98012"></circle><circle cx="3" cy="42.5" r="1.5" fill="#F98012"></circle><circle cx="13" cy="42.5" r="2.5" fill="#F98012"></circle><circle cx="23.5" cy="42" r="3" fill="#F98012"></circle><circle cx="33" cy="43" r="4" fill="#F98012"></circle><circle cx="43.5" cy="42" r="3" fill="#F98012"></circle><circle cx="53" cy="42.5" r="2.5" fill="#F98012"></circle><circle cx="63" cy="42.5" r="1.5" fill="#F98012"></circle><circle cx="13" cy="52.5" r="1.5" fill="#F98012"></circle><circle cx="23" cy="52.5" r="2.5" fill="#F98012"></circle><circle cx="33" cy="52.5" r="2.5" fill="#F98012"></circle><circle cx="43" cy="52.5" r="2.5" fill="#F98012"></circle><circle cx="53" cy="52.5" r="1.5" fill="#F98012"></circle><circle cx="23" cy="62.5" r="1.5" fill="#F98012"></circle><circle cx="33" cy="62.5" r="1.5" fill="#F98012"></circle><circle cx="43" cy="62.5" r="1.5" fill="#F98012"></circle></svg> 