<?xml version="1.0" encoding="UTF-8"?> <svg xmlns="http://www.w3.org/2000/svg" width="66" height="65" viewBox="0 0 66 65" fill="none"><circle cx="23" cy="2.5" r="1.5" fill="#F98012"></circle><circle cx="33" cy="2.5" r="1.5" fill="#F98012"></circle><circle cx="43" cy="2.5" r="1.5" fill="#F98012"></circle><circle cx="13" cy="12.5" r="1.5" fill="#F98012"></circle><circle cx="23" cy="12.5" r="2.5" fill="#F98012"></circle><circle cx="33" cy="12.5" r="2.5" fill="#F98012"></circle><circle cx="43" cy="12.5" r="2.5" fill="#F98012"></circle><circle cx="53" cy="12.5" r="1.5" fill="#F98012"></circle><circle cx="3" cy="22.5" r="1.5" fill="#F98012"></circle><circle cx="13" cy="22.5" r="2.5" fill="#F98012"></circle><circle cx="23" cy="23" r="5" fill="#F98012"></circle><circle cx="32.5" cy="23" r="3" fill="#F98012"></circle><circle cx="42.5" cy="23" r="3" fill="#F98012"></circle><circle cx="53" cy="22.5" r="2.5" fill="#F98012"></circle><circle cx="63" cy="22.5" r="1.5" fill="#F98012"></circle><circle cx="3" cy="32.5" r="1.5" fill="#F98012"></circle><circle cx="13" cy="33" r="5" fill="#F98012"></circle><circle cx="22.5" cy="33" r="3" fill="#F98012"></circle><circle cx="33" cy="33" r="5" fill="#F98012"></circle><circle cx="42.5" cy="33" r="3" fill="#F98012"></circle><circle cx="53" cy="33" r="5" fill="#F98012"></circle><circle cx="63" cy="32.5" r="1.5" fill="#F98012"></circle><circle cx="3" cy="42.5" r="1.5" fill="#F98012"></circle><circle cx="13" cy="42.5" r="2.5" fill="#F98012"></circle><circle cx="22.5" cy="43" r="3" fill="#F98012"></circle><circle cx="32.5" cy="43" r="3" fill="#F98012"></circle><circle cx="43" cy="43" r="5" fill="#F98012"></circle><circle cx="53" cy="42.5" r="2.5" fill="#F98012"></circle><circle cx="63" cy="42.5" r="1.5" fill="#F98012"></circle><circle cx="13" cy="52.5" r="1.5" fill="#F98012"></circle><circle cx="23" cy="52.5" r="2.5" fill="#F98012"></circle><circle cx="33" cy="52.5" r="2.5" fill="#F98012"></circle><circle cx="43" cy="52.5" r="2.5" fill="#F98012"></circle><circle cx="53" cy="52.5" r="1.5" fill="#F98012"></circle><circle cx="23" cy="62.5" r="1.5" fill="#F98012"></circle><circle cx="33" cy="62.5" r="1.5" fill="#F98012"></circle><circle cx="43" cy="62.5" r="1.5" fill="#F98012"></circle><path fill-rule="evenodd" clip-rule="evenodd" d="M18 33C18 29.4645 19.4645 28 23 28L18 23C18 26.5355 16.5355 28 13 28L18 33Z" fill="#F98012"></path><path fill-rule="evenodd" clip-rule="evenodd" d="M33 28C29.4645 28 28 26.5355 28 23L23 28C26.5355 28 28 29.4645 28 33L33 28Z" fill="#F98012"></path><path fill-rule="evenodd" clip-rule="evenodd" d="M48 43C48 39.4645 49.4645 38 53 38L48 33C48 36.5355 46.5355 38 43 38L48 43Z" fill="#F98012"></path></svg> 