<?xml version="1.0" encoding="UTF-8"?> <svg xmlns="http://www.w3.org/2000/svg" width="66" height="65" viewBox="0 0 66 65" fill="none"><circle cx="22" cy="1.5" r="1.5" fill="#F98012"></circle><circle cx="32" cy="1.5" r="1.5" fill="#F98012"></circle><circle cx="42" cy="1.5" r="1.5" fill="#F98012"></circle><circle cx="12" cy="11.5" r="1.5" fill="#F98012"></circle><circle cx="23" cy="12.5" r="2.5" fill="#F98012"></circle><circle cx="33" cy="12.5" r="2.5" fill="#F98012"></circle><circle cx="43" cy="12.5" r="2.5" fill="#F98012"></circle><circle cx="52" cy="11.5" r="1.5" fill="#F98012"></circle><circle cx="2" cy="21.5" r="1.5" fill="#F98012"></circle><circle cx="13" cy="22.5" r="2.5" fill="#F98012"></circle><circle cx="22.5" cy="23" r="4" fill="#F98012"></circle><circle cx="33.5" cy="23" r="3" fill="#F98012"></circle><circle cx="42.5" cy="23" r="4" fill="#F98012"></circle><circle cx="53" cy="22.5" r="2.5" fill="#F98012"></circle><circle cx="62" cy="21.5" r="1.5" fill="#F98012"></circle><circle cx="2" cy="31.5" r="1.5" fill="#F98012"></circle><circle cx="13" cy="32.5" r="2.5" fill="#F98012"></circle><circle cx="23.5" cy="33" r="3" fill="#F98012"></circle><circle cx="33" cy="33" r="5" fill="#F98012"></circle><circle cx="43.5" cy="33" r="3" fill="#F98012"></circle><circle cx="53" cy="32.5" r="2.5" fill="#F98012"></circle><circle cx="62" cy="31.5" r="1.5" fill="#F98012"></circle><circle cx="2" cy="41.5" r="1.5" fill="#F98012"></circle><circle cx="13" cy="42.5" r="2.5" fill="#F98012"></circle><circle cx="22.5" cy="43" r="4" fill="#F98012"></circle><circle cx="33.5" cy="43" r="3" fill="#F98012"></circle><circle cx="42.5" cy="43" r="4" fill="#F98012"></circle><circle cx="53" cy="42.5" r="2.5" fill="#F98012"></circle><circle cx="62" cy="41.5" r="1.5" fill="#F98012"></circle><circle cx="12" cy="51.5" r="1.5" fill="#F98012"></circle><circle cx="23" cy="52.5" r="2.5" fill="#F98012"></circle><circle cx="33" cy="52.5" r="2.5" fill="#F98012"></circle><circle cx="43" cy="52.5" r="2.5" fill="#F98012"></circle><circle cx="52" cy="51.5" r="1.5" fill="#F98012"></circle><circle cx="22" cy="61.5" r="1.5" fill="#F98012"></circle><circle cx="32" cy="61.5" r="1.5" fill="#F98012"></circle><circle cx="42" cy="61.5" r="1.5" fill="#F98012"></circle><path fill-rule="evenodd" clip-rule="evenodd" d="M42.7475 39.0078C39.4547 38.8037 37.7352 37.4255 37.9904 33.3096L33.0532 37.9999C37.1769 37.956 38.4651 39.7439 38.5002 43.0428L42.7475 39.0078Z" fill="#F98012"></path><path fill-rule="evenodd" clip-rule="evenodd" d="M42.5 39C37.7 39 26.5 27.8 26.5 23L22.5 27C27.3 27 38.5 38.2 38.5 43L42.5 39Z" fill="#F98012"></path><path fill-rule="evenodd" clip-rule="evenodd" d="M32.7057 28.0088C28.1968 28.2746 26.7057 26.3717 26.493 22.7646L22.4595 26.9999C26.0726 27.0365 28.046 28.433 28.0002 32.9495L32.7057 28.0088Z" fill="#F98012"></path></svg> 