<?xml version="1.0" encoding="UTF-8"?> <svg xmlns="http://www.w3.org/2000/svg" width="66" height="65" viewBox="0 0 66 65" fill="none"><circle cx="23" cy="2.5" r="1.5" fill="#F98012"></circle><circle cx="33" cy="2.5" r="1.5" fill="#F98012"></circle><circle cx="43" cy="2.5" r="1.5" fill="#F98012"></circle><circle cx="13" cy="12.5" r="1.5" fill="#F98012"></circle><circle cx="23" cy="12.5" r="2.5" fill="#F98012"></circle><circle cx="33" cy="12.5" r="2.5" fill="#F98012"></circle><circle cx="43" cy="12.5" r="2.5" fill="#F98012"></circle><circle cx="53" cy="12.5" r="1.5" fill="#F98012"></circle><circle cx="3" cy="22.5" r="1.5" fill="#F98012"></circle><circle cx="13" cy="22.5" r="2.5" fill="#F98012"></circle><circle cx="22.5" cy="23" r="3" fill="#F98012"></circle><circle cx="33" cy="23" r="5" fill="#F98012"></circle><circle cx="42.5" cy="23" r="3" fill="#F98012"></circle><circle cx="53" cy="22.5" r="2.5" fill="#F98012"></circle><circle cx="63" cy="22.5" r="1.5" fill="#F98012"></circle><circle cx="3" cy="32.5" r="1.5" fill="#F98012"></circle><circle cx="13" cy="32.5" r="2.5" fill="#F98012"></circle><circle cx="23" cy="33" r="5" fill="#F98012"></circle><circle cx="33.5" cy="33" r="3" fill="#F98012"></circle><circle cx="43" cy="33" r="5" fill="#F98012"></circle><circle cx="53" cy="32.5" r="2.5" fill="#F98012"></circle><circle cx="63" cy="32.5" r="1.5" fill="#F98012"></circle><circle cx="3" cy="42.5" r="1.5" fill="#F98012"></circle><circle cx="13" cy="42.5" r="2.5" fill="#F98012"></circle><circle cx="22.5" cy="43" r="3" fill="#F98012"></circle><circle cx="33" cy="43" r="5" fill="#F98012"></circle><circle cx="42.5" cy="43" r="3" fill="#F98012"></circle><circle cx="53" cy="42.5" r="2.5" fill="#F98012"></circle><circle cx="63" cy="42.5" r="1.5" fill="#F98012"></circle><circle cx="13" cy="52.5" r="1.5" fill="#F98012"></circle><circle cx="23" cy="52.5" r="2.5" fill="#F98012"></circle><circle cx="33" cy="52.5" r="2.5" fill="#F98012"></circle><circle cx="43" cy="52.5" r="2.5" fill="#F98012"></circle><circle cx="53" cy="52.5" r="1.5" fill="#F98012"></circle><circle cx="23" cy="62.5" r="1.5" fill="#F98012"></circle><circle cx="33" cy="62.5" r="1.5" fill="#F98012"></circle><circle cx="43" cy="62.5" r="1.5" fill="#F98012"></circle><path fill-rule="evenodd" clip-rule="evenodd" d="M27.8619 31.8325C27.2064 29.1023 29.1025 27.2061 31.8328 27.8616L28.1382 24.167C28.7936 26.8973 26.8975 28.7934 24.1672 28.1379L27.8619 31.8325Z" fill="#F98012"></path><path fill-rule="evenodd" clip-rule="evenodd" d="M31.986 38.1036C29.1541 38.6901 27.3096 36.8456 27.8961 34.0137L24.0139 37.8958C26.8459 37.3094 28.6903 39.1539 28.1039 41.9858L31.986 38.1036Z" fill="#F98012"></path></svg> 