<svg xmlns="http://www.w3.org/2000/svg" xmlns:xlink="http://www.w3.org/1999/xlink" width="500" zoomAndPan="magnify" viewBox="0 0 375 374.999991" height="500" preserveAspectRatio="xMidYMid meet" version="1.0"><defs><clipPath id="a61791b94c"><path d="M 112.5 112.5 L 262.5 112.5 L 262.5 262.5 L 112.5 262.5 Z M 112.5 112.5 " clip-rule="nonzero"/></clipPath></defs><g clip-path="url(#a61791b94c)"><path fill="#194866" d="M 243.75 262.5 C 244.363281 262.5 244.976562 262.46875 245.585938 262.410156 C 246.199219 262.347656 246.804688 262.257812 247.40625 262.140625 C 248.011719 262.019531 248.605469 261.871094 249.191406 261.691406 C 249.78125 261.515625 250.359375 261.308594 250.925781 261.074219 C 251.492188 260.835938 252.046875 260.574219 252.589844 260.285156 C 253.128906 259.996094 253.65625 259.679688 254.167969 259.339844 C 254.675781 259 255.171875 258.632812 255.644531 258.242188 C 256.121094 257.855469 256.574219 257.441406 257.007812 257.007812 C 257.441406 256.574219 257.855469 256.121094 258.242188 255.644531 C 258.632812 255.171875 259 254.675781 259.339844 254.167969 C 259.679688 253.65625 259.996094 253.128906 260.285156 252.589844 C 260.574219 252.046875 260.835938 251.492188 261.074219 250.925781 C 261.308594 250.359375 261.515625 249.78125 261.691406 249.191406 C 261.871094 248.605469 262.019531 248.011719 262.140625 247.40625 C 262.257812 246.804688 262.347656 246.199219 262.410156 245.585938 C 262.46875 244.976562 262.5 244.363281 262.5 243.75 C 262.5 243.136719 262.46875 242.523438 262.410156 241.914062 C 262.347656 241.300781 262.257812 240.695312 262.140625 240.09375 C 262.019531 239.488281 261.871094 238.894531 261.691406 238.308594 C 261.515625 237.71875 261.308594 237.140625 261.074219 236.574219 C 260.835938 236.007812 260.574219 235.453125 260.285156 234.910156 C 259.996094 234.371094 259.679688 233.84375 259.339844 233.332031 C 259 232.824219 258.632812 232.328125 258.242188 231.855469 C 257.855469 231.378906 257.441406 230.925781 257.007812 230.492188 C 256.574219 230.058594 256.121094 229.644531 255.644531 229.257812 C 255.171875 228.867188 254.675781 228.5 254.167969 228.160156 C 253.65625 227.820312 253.128906 227.503906 252.589844 227.214844 C 252.046875 226.925781 251.492188 226.664062 250.925781 226.425781 C 250.359375 226.191406 249.78125 225.984375 249.191406 225.808594 C 248.605469 225.628906 248.011719 225.480469 247.40625 225.359375 C 246.804688 225.242188 246.199219 225.152344 245.585938 225.089844 C 244.976562 225.03125 244.363281 225 243.75 225 C 243.136719 225 242.523438 225.03125 241.914062 225.089844 C 241.300781 225.152344 240.695312 225.242188 240.09375 225.359375 C 239.488281 225.480469 238.894531 225.628906 238.308594 225.808594 C 237.71875 225.984375 237.140625 226.191406 236.574219 226.425781 C 236.007812 226.664062 235.453125 226.925781 234.910156 227.214844 C 234.371094 227.503906 233.84375 227.820312 233.332031 228.160156 C 232.824219 228.5 232.328125 228.867188 231.855469 229.257812 C 231.378906 229.644531 230.925781 230.058594 230.492188 230.492188 C 230.058594 230.925781 229.644531 231.378906 229.257812 231.855469 C 228.867188 232.328125 228.5 232.824219 228.160156 233.332031 C 227.820312 233.84375 227.503906 234.371094 227.214844 234.910156 C 226.925781 235.453125 226.664062 236.007812 226.425781 236.574219 C 226.191406 237.140625 225.984375 237.71875 225.808594 238.308594 C 225.628906 238.894531 225.480469 239.488281 225.359375 240.09375 C 225.242188 240.695312 225.152344 241.300781 225.089844 241.914062 C 225.03125 242.523438 225 243.136719 225 243.75 C 225 244.363281 225.03125 244.976562 225.089844 245.585938 C 225.152344 246.199219 225.242188 246.804688 225.359375 247.40625 C 225.480469 248.011719 225.628906 248.605469 225.808594 249.191406 C 225.984375 249.78125 226.191406 250.359375 226.425781 250.925781 C 226.664062 251.492188 226.925781 252.046875 227.214844 252.589844 C 227.503906 253.128906 227.820312 253.65625 228.160156 254.167969 C 228.5 254.675781 228.867188 255.171875 229.257812 255.644531 C 229.644531 256.121094 230.058594 256.574219 230.492188 257.007812 C 230.925781 257.441406 231.378906 257.855469 231.855469 258.242188 C 232.328125 258.632812 232.824219 259 233.332031 259.339844 C 233.84375 259.679688 234.371094 259.996094 234.910156 260.285156 C 235.453125 260.574219 236.007812 260.835938 236.574219 261.074219 C 237.140625 261.308594 237.71875 261.515625 238.308594 261.691406 C 238.894531 261.871094 239.488281 262.019531 240.09375 262.140625 C 240.695312 262.257812 241.300781 262.347656 241.914062 262.410156 C 242.523438 262.46875 243.136719 262.5 243.75 262.5 Z M 243.75 206.25 C 244.363281 206.25 244.976562 206.21875 245.585938 206.160156 C 246.199219 206.097656 246.804688 206.007812 247.40625 205.890625 C 248.011719 205.769531 248.605469 205.621094 249.191406 205.441406 C 249.78125 205.265625 250.359375 205.058594 250.925781 204.824219 C 251.492188 204.585938 252.046875 204.324219 252.589844 204.035156 C 253.128906 203.746094 253.65625 203.429688 254.167969 203.089844 C 254.675781 202.75 255.171875 202.382812 255.644531 201.992188 C 256.121094 201.605469 256.574219 201.191406 257.007812 200.757812 C 257.441406 200.324219 257.855469 199.871094 258.242188 199.394531 C 258.632812 198.921875 259 198.425781 259.339844 197.917969 C 259.679688 197.40625 259.996094 196.878906 260.285156 196.339844 C 260.574219 195.796875 260.835938 195.242188 261.074219 194.675781 C 261.308594 194.109375 261.515625 193.53125 261.691406 192.941406 C 261.871094 192.355469 262.019531 191.761719 262.140625 191.15625 C 262.257812 190.554688 262.347656 189.949219 262.410156 189.335938 C 262.46875 188.726562 262.5 188.113281 262.5 187.5 C 262.5 186.886719 262.46875 186.273438 262.410156 185.664062 C 262.347656 185.050781 262.257812 184.445312 262.140625 183.84375 C 262.019531 183.238281 261.871094 182.644531 261.691406 182.058594 C 261.515625 181.46875 261.308594 180.890625 261.074219 180.324219 C 260.835938 179.757812 260.574219 179.203125 260.285156 178.660156 C 259.996094 178.121094 259.679688 177.59375 259.339844 177.082031 C 259 176.574219 258.632812 176.078125 258.242188 175.605469 C 257.855469 175.128906 257.441406 174.675781 257.007812 174.242188 C 256.574219 173.808594 256.121094 173.394531 255.644531 173.007812 C 255.171875 172.617188 254.675781 172.25 254.167969 171.910156 C 253.65625 171.570312 253.128906 171.253906 252.589844 170.964844 C 252.046875 170.675781 251.492188 170.414062 250.925781 170.175781 C 250.359375 169.941406 249.78125 169.734375 249.191406 169.558594 C 248.605469 169.378906 248.011719 169.230469 247.40625 169.109375 C 246.804688 168.992188 246.199219 168.902344 245.585938 168.839844 C 244.976562 168.78125 244.363281 168.75 243.75 168.75 C 243.136719 168.75 242.523438 168.78125 241.914062 168.839844 C 241.300781 168.902344 240.695312 168.992188 240.09375 169.109375 C 239.488281 169.230469 238.894531 169.378906 238.308594 169.558594 C 237.71875 169.734375 237.140625 169.941406 236.574219 170.175781 C 236.007812 170.414062 235.453125 170.675781 234.910156 170.964844 C 234.371094 171.253906 233.84375 171.570312 233.332031 171.910156 C 232.824219 172.25 232.328125 172.617188 231.855469 173.007812 C 231.378906 173.394531 230.925781 173.808594 230.492188 174.242188 C 230.058594 174.675781 229.644531 175.128906 229.257812 175.605469 C 228.867188 176.078125 228.5 176.574219 228.160156 177.082031 C 227.820312 177.59375 227.503906 178.121094 227.214844 178.660156 C 226.925781 179.203125 226.664062 179.757812 226.425781 180.324219 C 226.191406 180.890625 225.984375 181.46875 225.808594 182.058594 C 225.628906 182.644531 225.480469 183.238281 225.359375 183.84375 C 225.242188 184.445312 225.152344 185.050781 225.089844 185.664062 C 225.03125 186.273438 225 186.886719 225 187.5 C 225 188.113281 225.03125 188.726562 225.089844 189.335938 C 225.152344 189.949219 225.242188 190.554688 225.359375 191.15625 C 225.480469 191.761719 225.628906 192.355469 225.808594 192.941406 C 225.984375 193.53125 226.191406 194.109375 226.425781 194.675781 C 226.664062 195.242188 226.925781 195.796875 227.214844 196.339844 C 227.503906 196.878906 227.820312 197.40625 228.160156 197.917969 C 228.5 198.425781 228.867188 198.921875 229.257812 199.394531 C 229.644531 199.871094 230.058594 200.324219 230.492188 200.757812 C 230.925781 201.191406 231.378906 201.605469 231.855469 201.992188 C 232.328125 202.382812 232.824219 202.75 233.332031 203.089844 C 233.84375 203.429688 234.371094 203.746094 234.910156 204.035156 C 235.453125 204.324219 236.007812 204.585938 236.574219 204.824219 C 237.140625 205.058594 237.71875 205.265625 238.308594 205.441406 C 238.894531 205.621094 239.488281 205.769531 240.09375 205.890625 C 240.695312 206.007812 241.300781 206.097656 241.914062 206.160156 C 242.523438 206.21875 243.136719 206.25 243.75 206.25 Z M 243.75 150 C 244.363281 150 244.976562 149.96875 245.585938 149.910156 C 246.199219 149.847656 246.804688 149.757812 247.40625 149.640625 C 248.011719 149.519531 248.605469 149.371094 249.191406 149.191406 C 249.78125 149.015625 250.359375 148.808594 250.925781 148.574219 C 251.492188 148.335938 252.046875 148.074219 252.589844 147.785156 C 253.128906 147.496094 253.65625 147.179688 254.167969 146.839844 C 254.675781 146.5 255.171875 146.132812 255.644531 145.742188 C 256.121094 145.355469 256.574219 144.941406 257.007812 144.507812 C 257.441406 144.074219 257.855469 143.621094 258.242188 143.144531 C 258.632812 142.671875 259 142.175781 259.339844 141.667969 C 259.679688 141.15625 259.996094 140.628906 260.285156 140.089844 C 260.574219 139.546875 260.835938 138.992188 261.074219 138.425781 C 261.308594 137.859375 261.515625 137.28125 261.691406 136.691406 C 261.871094 136.105469 262.019531 135.511719 262.140625 134.90625 C 262.257812 134.304688 262.347656 133.699219 262.410156 133.085938 C 262.46875 132.476562 262.5 131.863281 262.5 131.25 C 262.5 130.636719 262.46875 130.023438 262.410156 129.414062 C 262.347656 128.800781 262.257812 128.195312 262.140625 127.59375 C 262.019531 126.988281 261.871094 126.394531 261.691406 125.808594 C 261.515625 125.21875 261.308594 124.640625 261.074219 124.074219 C 260.835938 123.507812 260.574219 122.953125 260.285156 122.410156 C 259.996094 121.871094 259.679688 121.34375 259.339844 120.832031 C 259 120.324219 258.632812 119.828125 258.242188 119.355469 C 257.855469 118.878906 257.441406 118.425781 257.007812 117.992188 C 256.574219 117.558594 256.121094 117.144531 255.644531 116.757812 C 255.171875 116.367188 254.675781 116 254.167969 115.660156 C 253.65625 115.320312 253.128906 115.003906 252.589844 114.714844 C 252.046875 114.425781 251.492188 114.164062 250.925781 113.925781 C 250.359375 113.691406 249.78125 113.484375 249.191406 113.308594 C 248.605469 113.128906 248.011719 112.980469 247.40625 112.859375 C 246.804688 112.742188 246.199219 112.652344 245.585938 112.589844 C 244.976562 112.53125 244.363281 112.5 243.75 112.5 C 243.136719 112.5 242.523438 112.53125 241.914062 112.589844 C 241.300781 112.652344 240.695312 112.742188 240.09375 112.859375 C 239.488281 112.980469 238.894531 113.128906 238.308594 113.308594 C 237.71875 113.484375 237.140625 113.691406 236.574219 113.925781 C 236.007812 114.164062 235.453125 114.425781 234.910156 114.714844 C 234.371094 115.003906 233.84375 115.320312 233.332031 115.660156 C 232.824219 116 232.328125 116.367188 231.855469 116.757812 C 231.378906 117.144531 230.925781 117.558594 230.492188 117.992188 C 230.058594 118.425781 229.644531 118.878906 229.257812 119.355469 C 228.867188 119.828125 228.5 120.324219 228.160156 120.832031 C 227.820312 121.34375 227.503906 121.871094 227.214844 122.410156 C 226.925781 122.953125 226.664062 123.507812 226.425781 124.074219 C 226.191406 124.640625 225.984375 125.21875 225.808594 125.808594 C 225.628906 126.394531 225.480469 126.988281 225.359375 127.59375 C 225.242188 128.195312 225.152344 128.800781 225.089844 129.414062 C 225.03125 130.023438 225 130.636719 225 131.25 C 225 131.863281 225.03125 132.476562 225.089844 133.085938 C 225.152344 133.699219 225.242188 134.304688 225.359375 134.90625 C 225.480469 135.511719 225.628906 136.105469 225.808594 136.691406 C 225.984375 137.28125 226.191406 137.859375 226.425781 138.425781 C 226.664062 138.992188 226.925781 139.546875 227.214844 140.089844 C 227.503906 140.628906 227.820312 141.15625 228.160156 141.667969 C 228.5 142.175781 228.867188 142.671875 229.257812 143.144531 C 229.644531 143.621094 230.058594 144.074219 230.492188 144.507812 C 230.925781 144.941406 231.378906 145.355469 231.855469 145.742188 C 232.328125 146.132812 232.824219 146.5 233.332031 146.839844 C 233.84375 147.179688 234.371094 147.496094 234.910156 147.785156 C 235.453125 148.074219 236.007812 148.335938 236.574219 148.574219 C 237.140625 148.808594 237.71875 149.015625 238.308594 149.191406 C 238.894531 149.371094 239.488281 149.519531 240.09375 149.640625 C 240.695312 149.757812 241.300781 149.847656 241.914062 149.910156 C 242.523438 149.96875 243.136719 150 243.75 150 Z M 187.5 262.5 C 188.113281 262.5 188.726562 262.46875 189.335938 262.410156 C 189.949219 262.347656 190.554688 262.257812 191.15625 262.140625 C 191.761719 262.019531 192.355469 261.871094 192.941406 261.691406 C 193.53125 261.515625 194.109375 261.308594 194.675781 261.074219 C 195.242188 260.835938 195.796875 260.574219 196.339844 260.285156 C 196.878906 259.996094 197.40625 259.679688 197.917969 259.339844 C 198.425781 259 198.921875 258.632812 199.394531 258.242188 C 199.871094 257.855469 200.324219 257.441406 200.757812 257.007812 C 201.191406 256.574219 201.605469 256.121094 201.992188 255.644531 C 202.382812 255.171875 202.75 254.675781 203.089844 254.167969 C 203.429688 253.65625 203.746094 253.128906 204.035156 252.589844 C 204.324219 252.046875 204.585938 251.492188 204.824219 250.925781 C 205.058594 250.359375 205.265625 249.78125 205.441406 249.191406 C 205.621094 248.605469 205.769531 248.011719 205.890625 247.40625 C 206.007812 246.804688 206.097656 246.199219 206.160156 245.585938 C 206.21875 244.976562 206.25 244.363281 206.25 243.75 C 206.25 243.136719 206.21875 242.523438 206.160156 241.914062 C 206.097656 241.300781 206.007812 240.695312 205.890625 240.09375 C 205.769531 239.488281 205.621094 238.894531 205.441406 238.308594 C 205.265625 237.71875 205.058594 237.140625 204.824219 236.574219 C 204.585938 236.007812 204.324219 235.453125 204.035156 234.910156 C 203.746094 234.371094 203.429688 233.84375 203.089844 233.332031 C 202.75 232.824219 202.382812 232.328125 201.992188 231.855469 C 201.605469 231.378906 201.191406 230.925781 200.757812 230.492188 C 200.324219 230.058594 199.871094 229.644531 199.394531 229.257812 C 198.921875 228.867188 198.425781 228.5 197.917969 228.160156 C 197.40625 227.820312 196.878906 227.503906 196.339844 227.214844 C 195.796875 226.925781 195.242188 226.664062 194.675781 226.425781 C 194.109375 226.191406 193.53125 225.984375 192.941406 225.808594 C 192.355469 225.628906 191.761719 225.480469 191.15625 225.359375 C 190.554688 225.242188 189.949219 225.152344 189.335938 225.089844 C 188.726562 225.03125 188.113281 225 187.5 225 C 186.886719 225 186.273438 225.03125 185.664062 225.089844 C 185.050781 225.152344 184.445312 225.242188 183.84375 225.359375 C 183.238281 225.480469 182.644531 225.628906 182.058594 225.808594 C 181.46875 225.984375 180.890625 226.191406 180.324219 226.425781 C 179.757812 226.664062 179.203125 226.925781 178.660156 227.214844 C 178.121094 227.503906 177.59375 227.820312 177.082031 228.160156 C 176.574219 228.5 176.078125 228.867188 175.605469 229.257812 C 175.128906 229.644531 174.675781 230.058594 174.242188 230.492188 C 173.808594 230.925781 173.394531 231.378906 173.007812 231.855469 C 172.617188 232.328125 172.25 232.824219 171.910156 233.332031 C 171.570312 233.84375 171.253906 234.371094 170.964844 234.910156 C 170.675781 235.453125 170.414062 236.007812 170.175781 236.574219 C 169.941406 237.140625 169.734375 237.71875 169.558594 238.308594 C 169.378906 238.894531 169.230469 239.488281 169.109375 240.09375 C 168.992188 240.695312 168.902344 241.300781 168.839844 241.914062 C 168.78125 242.523438 168.75 243.136719 168.75 243.75 C 168.75 244.363281 168.78125 244.976562 168.839844 245.585938 C 168.902344 246.199219 168.992188 246.804688 169.109375 247.40625 C 169.230469 248.011719 169.378906 248.605469 169.558594 249.191406 C 169.734375 249.78125 169.941406 250.359375 170.175781 250.925781 C 170.414062 251.492188 170.675781 252.046875 170.964844 252.589844 C 171.253906 253.128906 171.570312 253.65625 171.910156 254.167969 C 172.25 254.675781 172.617188 255.171875 173.007812 255.644531 C 173.394531 256.121094 173.808594 256.574219 174.242188 257.007812 C 174.675781 257.441406 175.128906 257.855469 175.605469 258.242188 C 176.078125 258.632812 176.574219 259 177.082031 259.339844 C 177.59375 259.679688 178.121094 259.996094 178.660156 260.285156 C 179.203125 260.574219 179.757812 260.835938 180.324219 261.074219 C 180.890625 261.308594 181.46875 261.515625 182.058594 261.691406 C 182.644531 261.871094 183.238281 262.019531 183.84375 262.140625 C 184.445312 262.257812 185.050781 262.347656 185.664062 262.410156 C 186.273438 262.46875 186.886719 262.5 187.5 262.5 Z M 187.5 206.25 C 188.113281 206.25 188.726562 206.21875 189.335938 206.160156 C 189.949219 206.097656 190.554688 206.007812 191.15625 205.890625 C 191.761719 205.769531 192.355469 205.621094 192.941406 205.441406 C 193.53125 205.265625 194.109375 205.058594 194.675781 204.824219 C 195.242188 204.585938 195.796875 204.324219 196.339844 204.035156 C 196.878906 203.746094 197.40625 203.429688 197.917969 203.089844 C 198.425781 202.75 198.921875 202.382812 199.394531 201.992188 C 199.871094 201.605469 200.324219 201.191406 200.757812 200.757812 C 201.191406 200.324219 201.605469 199.871094 201.992188 199.394531 C 202.382812 198.921875 202.75 198.425781 203.089844 197.917969 C 203.429688 197.40625 203.746094 196.878906 204.035156 196.339844 C 204.324219 195.796875 204.585938 195.242188 204.824219 194.675781 C 205.058594 194.109375 205.265625 193.53125 205.441406 192.941406 C 205.621094 192.355469 205.769531 191.761719 205.890625 191.15625 C 206.007812 190.554688 206.097656 189.949219 206.160156 189.335938 C 206.21875 188.726562 206.25 188.113281 206.25 187.5 C 206.25 186.886719 206.21875 186.273438 206.160156 185.664062 C 206.097656 185.050781 206.007812 184.445312 205.890625 183.84375 C 205.769531 183.238281 205.621094 182.644531 205.441406 182.058594 C 205.265625 181.46875 205.058594 180.890625 204.824219 180.324219 C 204.585938 179.757812 204.324219 179.203125 204.035156 178.660156 C 203.746094 178.121094 203.429688 177.59375 203.089844 177.082031 C 202.75 176.574219 202.382812 176.078125 201.992188 175.605469 C 201.605469 175.128906 201.191406 174.675781 200.757812 174.242188 C 200.324219 173.808594 199.871094 173.394531 199.394531 173.007812 C 198.921875 172.617188 198.425781 172.25 197.917969 171.910156 C 197.40625 171.570312 196.878906 171.253906 196.339844 170.964844 C 195.796875 170.675781 195.242188 170.414062 194.675781 170.175781 C 194.109375 169.941406 193.53125 169.734375 192.941406 169.558594 C 192.355469 169.378906 191.761719 169.230469 191.15625 169.109375 C 190.554688 168.992188 189.949219 168.902344 189.335938 168.839844 C 188.726562 168.78125 188.113281 168.75 187.5 168.75 C 186.886719 168.75 186.273438 168.78125 185.664062 168.839844 C 185.050781 168.902344 184.445312 168.992188 183.84375 169.109375 C 183.238281 169.230469 182.644531 169.378906 182.058594 169.558594 C 181.46875 169.734375 180.890625 169.941406 180.324219 170.175781 C 179.757812 170.414062 179.203125 170.675781 178.660156 170.964844 C 178.121094 171.253906 177.59375 171.570312 177.082031 171.910156 C 176.574219 172.25 176.078125 172.617188 175.605469 173.007812 C 175.128906 173.394531 174.675781 173.808594 174.242188 174.242188 C 173.808594 174.675781 173.394531 175.128906 173.007812 175.605469 C 172.617188 176.078125 172.25 176.574219 171.910156 177.082031 C 171.570312 177.59375 171.253906 178.121094 170.964844 178.660156 C 170.675781 179.203125 170.414062 179.757812 170.175781 180.324219 C 169.941406 180.890625 169.734375 181.46875 169.558594 182.058594 C 169.378906 182.644531 169.230469 183.238281 169.109375 183.84375 C 168.992188 184.445312 168.902344 185.050781 168.839844 185.664062 C 168.78125 186.273438 168.75 186.886719 168.75 187.5 C 168.75 188.113281 168.78125 188.726562 168.839844 189.335938 C 168.902344 189.949219 168.992188 190.554688 169.109375 191.15625 C 169.230469 191.761719 169.378906 192.355469 169.558594 192.941406 C 169.734375 193.53125 169.941406 194.109375 170.175781 194.675781 C 170.414062 195.242188 170.675781 195.796875 170.964844 196.339844 C 171.253906 196.878906 171.570312 197.40625 171.910156 197.917969 C 172.25 198.425781 172.617188 198.921875 173.007812 199.394531 C 173.394531 199.871094 173.808594 200.324219 174.242188 200.757812 C 174.675781 201.191406 175.128906 201.605469 175.605469 201.992188 C 176.078125 202.382812 176.574219 202.75 177.082031 203.089844 C 177.59375 203.429688 178.121094 203.746094 178.660156 204.035156 C 179.203125 204.324219 179.757812 204.585938 180.324219 204.824219 C 180.890625 205.058594 181.46875 205.265625 182.058594 205.441406 C 182.644531 205.621094 183.238281 205.769531 183.84375 205.890625 C 184.445312 206.007812 185.050781 206.097656 185.664062 206.160156 C 186.273438 206.21875 186.886719 206.25 187.5 206.25 Z M 187.5 150 C 188.113281 150 188.726562 149.96875 189.335938 149.910156 C 189.949219 149.847656 190.554688 149.757812 191.15625 149.640625 C 191.761719 149.519531 192.355469 149.371094 192.941406 149.191406 C 193.53125 149.015625 194.109375 148.808594 194.675781 148.574219 C 195.242188 148.335938 195.796875 148.074219 196.339844 147.785156 C 196.878906 147.496094 197.40625 147.179688 197.917969 146.839844 C 198.425781 146.5 198.921875 146.132812 199.394531 145.742188 C 199.871094 145.355469 200.324219 144.941406 200.757812 144.507812 C 201.191406 144.074219 201.605469 143.621094 201.992188 143.144531 C 202.382812 142.671875 202.75 142.175781 203.089844 141.667969 C 203.429688 141.15625 203.746094 140.628906 204.035156 140.089844 C 204.324219 139.546875 204.585938 138.992188 204.824219 138.425781 C 205.058594 137.859375 205.265625 137.28125 205.441406 136.691406 C 205.621094 136.105469 205.769531 135.511719 205.890625 134.90625 C 206.007812 134.304688 206.097656 133.699219 206.160156 133.085938 C 206.21875 132.476562 206.25 131.863281 206.25 131.25 C 206.25 130.636719 206.21875 130.023438 206.160156 129.414062 C 206.097656 128.800781 206.007812 128.195312 205.890625 127.59375 C 205.769531 126.988281 205.621094 126.394531 205.441406 125.808594 C 205.265625 125.21875 205.058594 124.640625 204.824219 124.074219 C 204.585938 123.507812 204.324219 122.953125 204.035156 122.410156 C 203.746094 121.871094 203.429688 121.34375 203.089844 120.832031 C 202.75 120.324219 202.382812 119.828125 201.992188 119.355469 C 201.605469 118.878906 201.191406 118.425781 200.757812 117.992188 C 200.324219 117.558594 199.871094 117.144531 199.394531 116.757812 C 198.921875 116.367188 198.425781 116 197.917969 115.660156 C 197.40625 115.320312 196.878906 115.003906 196.339844 114.714844 C 195.796875 114.425781 195.242188 114.164062 194.675781 113.925781 C 194.109375 113.691406 193.53125 113.484375 192.941406 113.308594 C 192.355469 113.128906 191.761719 112.980469 191.15625 112.859375 C 190.554688 112.742188 189.949219 112.652344 189.335938 112.589844 C 188.726562 112.53125 188.113281 112.5 187.5 112.5 C 186.886719 112.5 186.273438 112.53125 185.664062 112.589844 C 185.050781 112.652344 184.445312 112.742188 183.84375 112.859375 C 183.238281 112.980469 182.644531 113.128906 182.058594 113.308594 C 181.46875 113.484375 180.890625 113.691406 180.324219 113.925781 C 179.757812 114.164062 179.203125 114.425781 178.660156 114.714844 C 178.121094 115.003906 177.59375 115.320312 177.082031 115.660156 C 176.574219 116 176.078125 116.367188 175.605469 116.757812 C 175.128906 117.144531 174.675781 117.558594 174.242188 117.992188 C 173.808594 118.425781 173.394531 118.878906 173.007812 119.355469 C 172.617188 119.828125 172.25 120.324219 171.910156 120.832031 C 171.570312 121.34375 171.253906 121.871094 170.964844 122.410156 C 170.675781 122.953125 170.414062 123.507812 170.175781 124.074219 C 169.941406 124.640625 169.734375 125.21875 169.558594 125.808594 C 169.378906 126.394531 169.230469 126.988281 169.109375 127.59375 C 168.992188 128.195312 168.902344 128.800781 168.839844 129.414062 C 168.78125 130.023438 168.75 130.636719 168.75 131.25 C 168.75 131.863281 168.78125 132.476562 168.839844 133.085938 C 168.902344 133.699219 168.992188 134.304688 169.109375 134.90625 C 169.230469 135.511719 169.378906 136.105469 169.558594 136.691406 C 169.734375 137.28125 169.941406 137.859375 170.175781 138.425781 C 170.414062 138.992188 170.675781 139.546875 170.964844 140.089844 C 171.253906 140.628906 171.570312 141.15625 171.910156 141.667969 C 172.25 142.175781 172.617188 142.671875 173.007812 143.144531 C 173.394531 143.621094 173.808594 144.074219 174.242188 144.507812 C 174.675781 144.941406 175.128906 145.355469 175.605469 145.742188 C 176.078125 146.132812 176.574219 146.5 177.082031 146.839844 C 177.59375 147.179688 178.121094 147.496094 178.660156 147.785156 C 179.203125 148.074219 179.757812 148.335938 180.324219 148.574219 C 180.890625 148.808594 181.46875 149.015625 182.058594 149.191406 C 182.644531 149.371094 183.238281 149.519531 183.84375 149.640625 C 184.445312 149.757812 185.050781 149.847656 185.664062 149.910156 C 186.273438 149.96875 186.886719 150 187.5 150 Z M 131.25 262.5 C 131.863281 262.5 132.476562 262.46875 133.085938 262.410156 C 133.699219 262.347656 134.304688 262.257812 134.90625 262.140625 C 135.511719 262.019531 136.105469 261.871094 136.691406 261.691406 C 137.28125 261.515625 137.859375 261.308594 138.425781 261.074219 C 138.992188 260.835938 139.546875 260.574219 140.089844 260.285156 C 140.628906 259.996094 141.15625 259.679688 141.667969 259.339844 C 142.175781 259 142.671875 258.632812 143.144531 258.242188 C 143.621094 257.855469 144.074219 257.441406 144.507812 257.007812 C 144.941406 256.574219 145.355469 256.121094 145.742188 255.644531 C 146.132812 255.171875 146.5 254.675781 146.839844 254.167969 C 147.179688 253.65625 147.496094 253.128906 147.785156 252.589844 C 148.074219 252.046875 148.335938 251.492188 148.574219 250.925781 C 148.808594 250.359375 149.015625 249.78125 149.191406 249.191406 C 149.371094 248.605469 149.519531 248.011719 149.640625 247.40625 C 149.757812 246.804688 149.847656 246.199219 149.910156 245.585938 C 149.96875 244.976562 150 244.363281 150 243.75 C 150 243.136719 149.96875 242.523438 149.910156 241.914062 C 149.847656 241.300781 149.757812 240.695312 149.640625 240.09375 C 149.519531 239.488281 149.371094 238.894531 149.191406 238.308594 C 149.015625 237.71875 148.808594 237.140625 148.574219 236.574219 C 148.335938 236.007812 148.074219 235.453125 147.785156 234.910156 C 147.496094 234.371094 147.179688 233.84375 146.839844 233.332031 C 146.5 232.824219 146.132812 232.328125 145.742188 231.855469 C 145.355469 231.378906 144.941406 230.925781 144.507812 230.492188 C 144.074219 230.058594 143.621094 229.644531 143.144531 229.257812 C 142.671875 228.867188 142.175781 228.5 141.667969 228.160156 C 141.15625 227.820312 140.628906 227.503906 140.089844 227.214844 C 139.546875 226.925781 138.992188 226.664062 138.425781 226.425781 C 137.859375 226.191406 137.28125 225.984375 136.691406 225.808594 C 136.105469 225.628906 135.511719 225.480469 134.90625 225.359375 C 134.304688 225.242188 133.699219 225.152344 133.085938 225.089844 C 132.476562 225.03125 131.863281 225 131.25 225 C 130.636719 225 130.023438 225.03125 129.414062 225.089844 C 128.800781 225.152344 128.195312 225.242188 127.59375 225.359375 C 126.988281 225.480469 126.394531 225.628906 125.808594 225.808594 C 125.21875 225.984375 124.640625 226.191406 124.074219 226.425781 C 123.507812 226.664062 122.953125 226.925781 122.410156 227.214844 C 121.871094 227.503906 121.34375 227.820312 120.832031 228.160156 C 120.324219 228.5 119.828125 228.867188 119.355469 229.257812 C 118.878906 229.644531 118.425781 230.058594 117.992188 230.492188 C 117.558594 230.925781 117.144531 231.378906 116.757812 231.855469 C 116.367188 232.328125 116 232.824219 115.660156 233.332031 C 115.320312 233.84375 115.003906 234.371094 114.714844 234.910156 C 114.425781 235.453125 114.164062 236.007812 113.925781 236.574219 C 113.691406 237.140625 113.484375 237.71875 113.308594 238.308594 C 113.128906 238.894531 112.980469 239.488281 112.859375 240.09375 C 112.742188 240.695312 112.652344 241.300781 112.589844 241.914062 C 112.53125 242.523438 112.5 243.136719 112.5 243.75 C 112.5 244.363281 112.53125 244.976562 112.589844 245.585938 C 112.652344 246.199219 112.742188 246.804688 112.859375 247.40625 C 112.980469 248.011719 113.128906 248.605469 113.308594 249.191406 C 113.484375 249.78125 113.691406 250.359375 113.925781 250.925781 C 114.164062 251.492188 114.425781 252.046875 114.714844 252.589844 C 115.003906 253.128906 115.320312 253.65625 115.660156 254.167969 C 116 254.675781 116.367188 255.171875 116.757812 255.644531 C 117.144531 256.121094 117.558594 256.574219 117.992188 257.007812 C 118.425781 257.441406 118.878906 257.855469 119.355469 258.242188 C 119.828125 258.632812 120.324219 259 120.832031 259.339844 C 121.34375 259.679688 121.871094 259.996094 122.410156 260.285156 C 122.953125 260.574219 123.507812 260.835938 124.074219 261.074219 C 124.640625 261.308594 125.21875 261.515625 125.808594 261.691406 C 126.394531 261.871094 126.988281 262.019531 127.59375 262.140625 C 128.195312 262.257812 128.800781 262.347656 129.414062 262.410156 C 130.023438 262.46875 130.636719 262.5 131.25 262.5 Z M 131.25 206.25 C 131.863281 206.25 132.476562 206.21875 133.085938 206.160156 C 133.699219 206.097656 134.304688 206.007812 134.90625 205.890625 C 135.511719 205.769531 136.105469 205.621094 136.691406 205.441406 C 137.28125 205.265625 137.859375 205.058594 138.425781 204.824219 C 138.992188 204.585938 139.546875 204.324219 140.089844 204.035156 C 140.628906 203.746094 141.15625 203.429688 141.667969 203.089844 C 142.175781 202.75 142.671875 202.382812 143.144531 201.992188 C 143.621094 201.605469 144.074219 201.191406 144.507812 200.757812 C 144.941406 200.324219 145.355469 199.871094 145.742188 199.394531 C 146.132812 198.921875 146.5 198.425781 146.839844 197.917969 C 147.179688 197.40625 147.496094 196.878906 147.785156 196.339844 C 148.074219 195.796875 148.335938 195.242188 148.574219 194.675781 C 148.808594 194.109375 149.015625 193.53125 149.191406 192.941406 C 149.371094 192.355469 149.519531 191.761719 149.640625 191.15625 C 149.757812 190.554688 149.847656 189.949219 149.910156 189.335938 C 149.96875 188.726562 150 188.113281 150 187.5 C 150 186.886719 149.96875 186.273438 149.910156 185.664062 C 149.847656 185.050781 149.757812 184.445312 149.640625 183.84375 C 149.519531 183.238281 149.371094 182.644531 149.191406 182.058594 C 149.015625 181.46875 148.808594 180.890625 148.574219 180.324219 C 148.335938 179.757812 148.074219 179.203125 147.785156 178.660156 C 147.496094 178.121094 147.179688 177.59375 146.839844 177.082031 C 146.5 176.574219 146.132812 176.078125 145.742188 175.605469 C 145.355469 175.128906 144.941406 174.675781 144.507812 174.242188 C 144.074219 173.808594 143.621094 173.394531 143.144531 173.007812 C 142.671875 172.617188 142.175781 172.25 141.667969 171.910156 C 141.15625 171.570312 140.628906 171.253906 140.089844 170.964844 C 139.546875 170.675781 138.992188 170.414062 138.425781 170.175781 C 137.859375 169.941406 137.28125 169.734375 136.691406 169.558594 C 136.105469 169.378906 135.511719 169.230469 134.90625 169.109375 C 134.304688 168.992188 133.699219 168.902344 133.085938 168.839844 C 132.476562 168.78125 131.863281 168.75 131.25 168.75 C 130.636719 168.75 130.023438 168.78125 129.414062 168.839844 C 128.800781 168.902344 128.195312 168.992188 127.59375 169.109375 C 126.988281 169.230469 126.394531 169.378906 125.808594 169.558594 C 125.21875 169.734375 124.640625 169.941406 124.074219 170.175781 C 123.507812 170.414062 122.953125 170.675781 122.410156 170.964844 C 121.871094 171.253906 121.34375 171.570312 120.832031 171.910156 C 120.324219 172.25 119.828125 172.617188 119.355469 173.007812 C 118.878906 173.394531 118.425781 173.808594 117.992188 174.242188 C 117.558594 174.675781 117.144531 175.128906 116.757812 175.605469 C 116.367188 176.078125 116 176.574219 115.660156 177.082031 C 115.320312 177.59375 115.003906 178.121094 114.714844 178.660156 C 114.425781 179.203125 114.164062 179.757812 113.925781 180.324219 C 113.691406 180.890625 113.484375 181.46875 113.308594 182.058594 C 113.128906 182.644531 112.980469 183.238281 112.859375 183.84375 C 112.742188 184.445312 112.652344 185.050781 112.589844 185.664062 C 112.53125 186.273438 112.5 186.886719 112.5 187.5 C 112.5 188.113281 112.53125 188.726562 112.589844 189.335938 C 112.652344 189.949219 112.742188 190.554688 112.859375 191.15625 C 112.980469 191.761719 113.128906 192.355469 113.308594 192.941406 C 113.484375 193.53125 113.691406 194.109375 113.925781 194.675781 C 114.164062 195.242188 114.425781 195.796875 114.714844 196.339844 C 115.003906 196.878906 115.320312 197.40625 115.660156 197.917969 C 116 198.425781 116.367188 198.921875 116.757812 199.394531 C 117.144531 199.871094 117.558594 200.324219 117.992188 200.757812 C 118.425781 201.191406 118.878906 201.605469 119.355469 201.992188 C 119.828125 202.382812 120.324219 202.75 120.832031 203.089844 C 121.34375 203.429688 121.871094 203.746094 122.410156 204.035156 C 122.953125 204.324219 123.507812 204.585938 124.074219 204.824219 C 124.640625 205.058594 125.21875 205.265625 125.808594 205.441406 C 126.394531 205.621094 126.988281 205.769531 127.59375 205.890625 C 128.195312 206.007812 128.800781 206.097656 129.414062 206.160156 C 130.023438 206.21875 130.636719 206.25 131.25 206.25 Z M 131.25 150 C 131.863281 150 132.476562 149.96875 133.085938 149.910156 C 133.699219 149.847656 134.304688 149.757812 134.90625 149.640625 C 135.511719 149.519531 136.105469 149.371094 136.691406 149.191406 C 137.28125 149.015625 137.859375 148.808594 138.425781 148.574219 C 138.992188 148.335938 139.546875 148.074219 140.089844 147.785156 C 140.628906 147.496094 141.15625 147.179688 141.667969 146.839844 C 142.175781 146.5 142.671875 146.132812 143.144531 145.742188 C 143.621094 145.355469 144.074219 144.941406 144.507812 144.507812 C 144.941406 144.074219 145.355469 143.621094 145.742188 143.144531 C 146.132812 142.671875 146.5 142.175781 146.839844 141.667969 C 147.179688 141.15625 147.496094 140.628906 147.785156 140.089844 C 148.074219 139.546875 148.335938 138.992188 148.574219 138.425781 C 148.808594 137.859375 149.015625 137.28125 149.191406 136.691406 C 149.371094 136.105469 149.519531 135.511719 149.640625 134.90625 C 149.757812 134.304688 149.847656 133.699219 149.910156 133.085938 C 149.96875 132.476562 150 131.863281 150 131.25 C 150 130.636719 149.96875 130.023438 149.910156 129.414062 C 149.847656 128.800781 149.757812 128.195312 149.640625 127.59375 C 149.519531 126.988281 149.371094 126.394531 149.191406 125.808594 C 149.015625 125.21875 148.808594 124.640625 148.574219 124.074219 C 148.335938 123.507812 148.074219 122.953125 147.785156 122.410156 C 147.496094 121.871094 147.179688 121.34375 146.839844 120.832031 C 146.5 120.324219 146.132812 119.828125 145.742188 119.355469 C 145.355469 118.878906 144.941406 118.425781 144.507812 117.992188 C 144.074219 117.558594 143.621094 117.144531 143.144531 116.757812 C 142.671875 116.367188 142.175781 116 141.667969 115.660156 C 141.15625 115.320312 140.628906 115.003906 140.089844 114.714844 C 139.546875 114.425781 138.992188 114.164062 138.425781 113.925781 C 137.859375 113.691406 137.28125 113.484375 136.691406 113.308594 C 136.105469 113.128906 135.511719 112.980469 134.90625 112.859375 C 134.304688 112.742188 133.699219 112.652344 133.085938 112.589844 C 132.476562 112.53125 131.863281 112.5 131.25 112.5 C 130.636719 112.5 130.023438 112.53125 129.414062 112.589844 C 128.800781 112.652344 128.195312 112.742188 127.59375 112.859375 C 126.988281 112.980469 126.394531 113.128906 125.808594 113.308594 C 125.21875 113.484375 124.640625 113.691406 124.074219 113.925781 C 123.507812 114.164062 122.953125 114.425781 122.410156 114.714844 C 121.871094 115.003906 121.34375 115.320312 120.832031 115.660156 C 120.324219 116 119.828125 116.367188 119.355469 116.757812 C 118.878906 117.144531 118.425781 117.558594 117.992188 117.992188 C 117.558594 118.425781 117.144531 118.878906 116.757812 119.355469 C 116.367188 119.828125 116 120.324219 115.660156 120.832031 C 115.320312 121.34375 115.003906 121.871094 114.714844 122.410156 C 114.425781 122.953125 114.164062 123.507812 113.925781 124.074219 C 113.691406 124.640625 113.484375 125.21875 113.308594 125.808594 C 113.128906 126.394531 112.980469 126.988281 112.859375 127.59375 C 112.742188 128.195312 112.652344 128.800781 112.589844 129.414062 C 112.53125 130.023438 112.5 130.636719 112.5 131.25 C 112.5 131.863281 112.53125 132.476562 112.589844 133.085938 C 112.652344 133.699219 112.742188 134.304688 112.859375 134.90625 C 112.980469 135.511719 113.128906 136.105469 113.308594 136.691406 C 113.484375 137.28125 113.691406 137.859375 113.925781 138.425781 C 114.164062 138.992188 114.425781 139.546875 114.714844 140.089844 C 115.003906 140.628906 115.320312 141.15625 115.660156 141.667969 C 116 142.175781 116.367188 142.671875 116.757812 143.144531 C 117.144531 143.621094 117.558594 144.074219 117.992188 144.507812 C 118.425781 144.941406 118.878906 145.355469 119.355469 145.742188 C 119.828125 146.132812 120.324219 146.5 120.832031 146.839844 C 121.34375 147.179688 121.871094 147.496094 122.410156 147.785156 C 122.953125 148.074219 123.507812 148.335938 124.074219 148.574219 C 124.640625 148.808594 125.21875 149.015625 125.808594 149.191406 C 126.394531 149.371094 126.988281 149.519531 127.59375 149.640625 C 128.195312 149.757812 128.800781 149.847656 129.414062 149.910156 C 130.023438 149.96875 130.636719 150 131.25 150 Z M 131.25 150 " fill-opacity="1" fill-rule="evenodd"/></g></svg>