<svg xmlns="http://www.w3.org/2000/svg" xmlns:xlink="http://www.w3.org/1999/xlink" width="500" zoomAndPan="magnify" viewBox="0 0 375 374.999991" height="500" preserveAspectRatio="xMidYMid meet" version="1.0"><defs><clipPath id="3ac3ab8623"><path d="M 25.605469 37.5 L 349.605469 37.5 L 349.605469 345.75 L 25.605469 345.75 Z M 25.605469 37.5 " clip-rule="nonzero"/></clipPath></defs><path fill="#ffffff" d="M 90.945312 319.667969 C 93.386719 321.078125 96.101562 321.789062 98.824219 321.789062 C 101.546875 321.789062 104.261719 321.078125 106.703125 319.667969 L 316.019531 198.832031 C 320.894531 196.03125 323.910156 190.824219 323.910156 185.1875 C 323.910156 179.566406 320.902344 174.355469 316.019531 171.539062 L 106.695312 50.710938 C 101.820312 47.894531 95.820312 47.894531 90.941406 50.710938 C 86.0625 53.527344 83.0625 58.730469 83.0625 64.355469 L 83.0625 306.027344 C 83.070312 311.660156 86.066406 316.863281 90.945312 319.667969 Z M 114.585938 91.644531 L 276.613281 185.1875 L 114.585938 278.730469 Z M 114.585938 91.644531 " fill-opacity="1" fill-rule="nonzero"/><g clip-path="url(#3ac3ab8623)"><path fill="#ffffff" d="M 163.632812 468.1875 C 319.683594 468.1875 446.644531 341.21875 446.644531 185.15625 C 446.644531 29.140625 319.691406 -97.792969 163.632812 -97.792969 C 7.566406 -97.792969 -119.402344 29.140625 -119.402344 185.15625 C -119.402344 341.21875 7.574219 468.1875 163.632812 468.1875 Z M 163.632812 -66.273438 C 302.316406 -66.273438 415.125 46.507812 415.125 185.15625 C 415.125 323.851562 302.316406 436.671875 163.632812 436.671875 C 24.941406 436.671875 -87.878906 323.847656 -87.878906 185.15625 C -87.878906 46.507812 24.941406 -66.273438 163.632812 -66.273438 Z M 163.632812 -66.273438 " fill-opacity="1" fill-rule="nonzero"/></g></svg>