<svg xmlns="http://www.w3.org/2000/svg" xmlns:xlink="http://www.w3.org/1999/xlink" width="500" zoomAndPan="magnify" viewBox="0 0 375 374.999991" height="500" preserveAspectRatio="xMidYMid meet" version="1.0"><defs><clipPath id="ee391d470a"><path d="M 112.5 151 L 262 151 L 262 224 L 112.5 224 Z M 112.5 151 " clip-rule="nonzero"/></clipPath></defs><g clip-path="url(#ee391d470a)"><path fill="#194866" d="M 218.953125 161.617188 L 240.257812 180.824219 C 240.648438 181.175781 240.398438 181.820312 239.875 181.820312 L 118.289062 181.820312 C 115.089844 181.820312 112.5 184.414062 112.5 187.609375 C 112.5 190.804688 115.089844 193.398438 118.289062 193.398438 L 239.898438 193.398438 C 240.421875 193.398438 240.667969 194.042969 240.277344 194.394531 L 219.179688 213.386719 C 216.835938 215.566406 216.703125 219.234375 218.882812 221.578125 C 221.0625 223.917969 224.726562 224.046875 227.066406 221.871094 L 260.039062 191.859375 C 262.503906 189.570312 262.503906 185.671875 260.039062 183.382812 L 226.839844 153.132812 C 224.5 150.957031 220.839844 151.089844 218.664062 153.425781 L 218.660156 153.433594 C 216.476562 155.773438 216.609375 159.4375 218.953125 161.617188 Z M 218.953125 161.617188 " fill-opacity="1" fill-rule="nonzero"/></g></svg>