<?xml version="1.0" encoding="UTF-8"?> <svg xmlns="http://www.w3.org/2000/svg" width="61" height="60" viewBox="0 0 61 60" fill="none"><rect x="1" y="0.5" width="59" height="59" rx="29.5" fill="#F98012"></rect><g clip-path="url(#clip0_2594_12255)"><path d="M30.5 31C30.2348 31 29.9804 31.1054 29.7929 31.2929C29.6054 31.4804 29.5 31.7348 29.5 32V35C29.5 35.2652 29.6054 35.5196 29.7929 35.7071C29.9804 35.8946 30.2348 36 30.5 36C30.7652 36 31.0196 35.8946 31.2071 35.7071C31.3946 35.5196 31.5 35.2652 31.5 35V32C31.5 31.7348 31.3946 31.4804 31.2071 31.2929C31.0196 31.1054 30.7652 31 30.5 31ZM35.5 27V25C35.5 23.6739 34.9732 22.4021 34.0355 21.4645C33.0979 20.5268 31.8261 20 30.5 20C29.1739 20 27.9021 20.5268 26.9645 21.4645C26.0268 22.4021 25.5 23.6739 25.5 25V27C24.7044 27 23.9413 27.3161 23.3787 27.8787C22.8161 28.4413 22.5 29.2044 22.5 30V37C22.5 37.7956 22.8161 38.5587 23.3787 39.1213C23.9413 39.6839 24.7044 40 25.5 40H35.5C36.2956 40 37.0587 39.6839 37.6213 39.1213C38.1839 38.5587 38.5 37.7956 38.5 37V30C38.5 29.2044 38.1839 28.4413 37.6213 27.8787C37.0587 27.3161 36.2956 27 35.5 27ZM27.5 25C27.5 24.2044 27.8161 23.4413 28.3787 22.8787C28.9413 22.3161 29.7044 22 30.5 22C31.2956 22 32.0587 22.3161 32.6213 22.8787C33.1839 23.4413 33.5 24.2044 33.5 25V27H27.5V25ZM36.5 37C36.5 37.2652 36.3946 37.5196 36.2071 37.7071C36.0196 37.8946 35.7652 38 35.5 38H25.5C25.2348 38 24.9804 37.8946 24.7929 37.7071C24.6054 37.5196 24.5 37.2652 24.5 37V30C24.5 29.7348 24.6054 29.4804 24.7929 29.2929C24.9804 29.1054 25.2348 29 25.5 29H35.5C35.7652 29 36.0196 29.1054 36.2071 29.2929C36.3946 29.4804 36.5 29.7348 36.5 30V37Z" fill="white"></path></g><rect x="1" y="0.5" width="59" height="59" rx="29.5" stroke="#F98012"></rect><defs><clipPath id="clip0_2594_12255"><rect width="24" height="24" fill="white" transform="translate(18.5 18)"></rect></clipPath></defs></svg> 