<?xml version="1.0" encoding="UTF-8"?> <svg xmlns="http://www.w3.org/2000/svg" width="61" height="60" viewBox="0 0 61 60" fill="none"><rect x="1" y="0.5" width="59" height="59" rx="29.5" fill="#F98012"></rect><path d="M27.79 31.29L22.5 36.59V35C22.5 34.7348 22.3946 34.4804 22.2071 34.2929C22.0196 34.1054 21.7652 34 21.5 34C21.2348 34 20.9804 34.1054 20.7929 34.2929C20.6054 34.4804 20.5 34.7348 20.5 35V39C20.5016 39.1307 20.5288 39.2598 20.58 39.38C20.6815 39.6243 20.8757 39.8185 21.12 39.92C21.2402 39.9712 21.3693 39.9984 21.5 40H25.5C25.7652 40 26.0196 39.8946 26.2071 39.7071C26.3946 39.5196 26.5 39.2652 26.5 39C26.5 38.7348 26.3946 38.4804 26.2071 38.2929C26.0196 38.1054 25.7652 38 25.5 38H23.91L29.21 32.71C29.3983 32.5217 29.5041 32.2663 29.5041 32C29.5041 31.7337 29.3983 31.4783 29.21 31.29C29.0217 31.1017 28.7663 30.9959 28.5 30.9959C28.2337 30.9959 27.9783 31.1017 27.79 31.29ZM23.91 22H25.5C25.7652 22 26.0196 21.8946 26.2071 21.7071C26.3946 21.5196 26.5 21.2652 26.5 21C26.5 20.7348 26.3946 20.4804 26.2071 20.2929C26.0196 20.1054 25.7652 20 25.5 20H21.5C21.3693 20.0016 21.2402 20.0288 21.12 20.08C20.8757 20.1815 20.6815 20.3757 20.58 20.62C20.5288 20.7402 20.5016 20.8693 20.5 21V25C20.5 25.2652 20.6054 25.5196 20.7929 25.7071C20.9804 25.8946 21.2348 26 21.5 26C21.7652 26 22.0196 25.8946 22.2071 25.7071C22.3946 25.5196 22.5 25.2652 22.5 25V23.41L27.79 28.71C27.883 28.8037 27.9936 28.8781 28.1154 28.9289C28.2373 28.9797 28.368 29.0058 28.5 29.0058C28.632 29.0058 28.7627 28.9797 28.8846 28.9289C29.0064 28.8781 29.117 28.8037 29.21 28.71C29.3037 28.617 29.3781 28.5064 29.4289 28.3846C29.4797 28.2627 29.5058 28.132 29.5058 28C29.5058 27.868 29.4797 27.7373 29.4289 27.6154C29.3781 27.4936 29.3037 27.383 29.21 27.29L23.91 22ZM39.5 34C39.2348 34 38.9804 34.1054 38.7929 34.2929C38.6054 34.4804 38.5 34.7348 38.5 35V36.59L33.21 31.29C33.0217 31.1017 32.7663 30.9959 32.5 30.9959C32.2337 30.9959 31.9783 31.1017 31.79 31.29C31.6017 31.4783 31.4959 31.7337 31.4959 32C31.4959 32.2663 31.6017 32.5217 31.79 32.71L37.09 38H35.5C35.2348 38 34.9804 38.1054 34.7929 38.2929C34.6054 38.4804 34.5 38.7348 34.5 39C34.5 39.2652 34.6054 39.5196 34.7929 39.7071C34.9804 39.8946 35.2348 40 35.5 40H39.5C39.6307 39.9984 39.7598 39.9712 39.88 39.92C40.1243 39.8185 40.3185 39.6243 40.42 39.38C40.4712 39.2598 40.4984 39.1307 40.5 39V35C40.5 34.7348 40.3946 34.4804 40.2071 34.2929C40.0196 34.1054 39.7652 34 39.5 34ZM40.42 20.62C40.3185 20.3757 40.1243 20.1815 39.88 20.08C39.7598 20.0288 39.6307 20.0016 39.5 20H35.5C35.2348 20 34.9804 20.1054 34.7929 20.2929C34.6054 20.4804 34.5 20.7348 34.5 21C34.5 21.2652 34.6054 21.5196 34.7929 21.7071C34.9804 21.8946 35.2348 22 35.5 22H37.09L31.79 27.29C31.6963 27.383 31.6219 27.4936 31.5711 27.6154C31.5203 27.7373 31.4942 27.868 31.4942 28C31.4942 28.132 31.5203 28.2627 31.5711 28.3846C31.6219 28.5064 31.6963 28.617 31.79 28.71C31.883 28.8037 31.9936 28.8781 32.1154 28.9289C32.2373 28.9797 32.368 29.0058 32.5 29.0058C32.632 29.0058 32.7627 28.9797 32.8846 28.9289C33.0064 28.8781 33.117 28.8037 33.21 28.71L38.5 23.41V25C38.5 25.2652 38.6054 25.5196 38.7929 25.7071C38.9804 25.8946 39.2348 26 39.5 26C39.7652 26 40.0196 25.8946 40.2071 25.7071C40.3946 25.5196 40.5 25.2652 40.5 25V21C40.4984 20.8693 40.4712 20.7402 40.42 20.62Z" fill="white"></path><rect x="1" y="0.5" width="59" height="59" rx="29.5" stroke="#F98012"></rect></svg> 