<?xml version="1.0" encoding="UTF-8"?> <svg xmlns="http://www.w3.org/2000/svg" width="60" height="60" viewBox="0 0 60 60" fill="none"><rect x="0.5" y="0.5" width="59" height="59" rx="29.5" fill="#F98012"></rect><path d="M29.999 19C28.6225 19.0017 27.277 19.4093 26.1308 20.1717C24.9847 20.9341 24.0888 22.0176 23.5551 23.2865C23.0215 24.5554 22.8739 25.9535 23.1307 27.3059C23.3875 28.6583 24.0374 29.905 24.999 30.89V40C24.9996 40.1705 25.0436 40.338 25.1271 40.4866C25.2106 40.6352 25.3306 40.7601 25.4759 40.8492C25.6212 40.9384 25.7869 40.989 25.9572 40.9961C26.1275 41.0032 26.2968 40.9667 26.449 40.89L29.999 39.12L33.549 40.89C33.6884 40.9614 33.8425 40.9991 33.999 41C34.1863 41.0006 34.3699 40.9486 34.529 40.85C34.6732 40.7599 34.7919 40.6346 34.8742 40.4859C34.9564 40.3372 34.9994 40.1699 34.999 40V30.89C35.9607 29.905 36.6105 28.6583 36.8674 27.3059C37.1242 25.9535 36.9765 24.5554 36.4429 23.2865C35.9093 22.0176 35.0134 20.9341 33.8673 20.1717C32.7211 19.4093 31.3756 19.0017 29.999 19ZM32.999 38.38L30.449 37.11C30.3095 37.0397 30.1553 37.003 29.999 37.003C29.8427 37.003 29.6886 37.0397 29.549 37.11L26.999 38.38V32.32C27.632 32.6189 28.3061 32.8211 28.999 32.92V34C28.999 34.2652 29.1044 34.5196 29.2919 34.7071C29.4795 34.8946 29.7338 35 29.999 35C30.2643 35 30.5186 34.8946 30.7061 34.7071C30.8937 34.5196 30.999 34.2652 30.999 34V32.92C31.692 32.8211 32.3661 32.6189 32.999 32.32V38.38ZM29.999 31C29.0101 31 28.0434 30.7068 27.2212 30.1573C26.3989 29.6079 25.7581 28.827 25.3796 27.9134C25.0012 26.9998 24.9022 25.9945 25.0951 25.0245C25.288 24.0546 25.7642 23.1637 26.4635 22.4645C27.1628 21.7652 28.0537 21.289 29.0236 21.0961C29.9935 20.9031 30.9988 21.0022 31.9125 21.3806C32.8261 21.759 33.607 22.3999 34.1564 23.2221C34.7058 24.0444 34.999 25.0111 34.999 26C34.999 27.3261 34.4723 28.5979 33.5346 29.5355C32.5969 30.4732 31.3251 31 29.999 31Z" fill="white"></path><rect x="0.5" y="0.5" width="59" height="59" rx="29.5" stroke="#F98012"></rect></svg> 