<?xml version="1.0" encoding="UTF-8"?> <svg xmlns="http://www.w3.org/2000/svg" width="61" height="60" viewBox="0 0 61 60" fill="none"><rect x="1" y="0.5" width="59" height="59" rx="29.5" fill="#F98012"></rect><path d="M38.4943 34.0045C37.8736 34.0077 37.2692 34.2034 36.7643 34.5645L34.3143 33.1145C34.4299 32.7557 34.4906 32.3815 34.4943 32.0045C34.4915 31.12 34.1955 30.2613 33.6526 29.5629C33.1098 28.8645 32.3508 28.3657 31.4943 28.1445V25.8245C32.1615 25.5886 32.7239 25.1245 33.082 24.514C33.44 23.9036 33.5708 23.1863 33.4511 22.4888C33.3314 21.7913 32.9691 21.1586 32.428 20.7024C31.8869 20.2463 31.202 19.9961 30.4943 19.9961C29.7866 19.9961 29.1017 20.2463 28.5607 20.7024C28.0196 21.1586 27.6572 21.7913 27.5375 22.4888C27.4179 23.1863 27.5486 23.9036 27.9067 24.514C28.2648 25.1245 28.8271 25.5886 29.4943 25.8245V28.1445C28.6378 28.3657 27.8788 28.8645 27.336 29.5629C26.7932 30.2613 26.4972 31.12 26.4943 32.0045C26.498 32.3815 26.5587 32.7557 26.6743 33.1145L24.2243 34.5645C23.7195 34.2034 23.115 34.0077 22.4943 34.0045C21.901 34.0045 21.321 34.1805 20.8276 34.5101C20.3343 34.8398 19.9497 35.3083 19.7227 35.8565C19.4956 36.4046 19.4362 37.0078 19.552 37.5898C19.6677 38.1717 19.9534 38.7063 20.373 39.1258C20.7926 39.5454 21.3271 39.8311 21.9091 39.9469C22.491 40.0626 23.0942 40.0032 23.6424 39.7762C24.1906 39.5491 24.6591 39.1646 24.9887 38.6712C25.3184 38.1779 25.4943 37.5979 25.4943 37.0045C25.4906 36.7337 25.4503 36.4645 25.3743 36.2045L27.6743 34.8345C28.4238 35.5795 29.4376 35.9977 30.4943 35.9977C31.5511 35.9977 32.5649 35.5795 33.3143 34.8345L35.6143 36.2045C35.4468 36.8101 35.4736 37.4531 35.691 38.0426C35.9085 38.6321 36.3055 39.1385 36.8262 39.4903C37.3468 39.8421 37.9648 40.0215 38.5929 40.0032C39.221 39.985 39.8275 39.7699 40.3268 39.3885C40.8262 39.0071 41.1931 38.4785 41.3759 37.8773C41.5587 37.2761 41.5482 36.6327 41.3457 36.0379C41.1432 35.443 40.7591 34.9268 40.2475 34.5619C39.7359 34.1971 39.1227 34.0021 38.4943 34.0045ZM22.4943 38.0045C22.2965 38.0045 22.1032 37.9459 21.9388 37.836C21.7743 37.7261 21.6461 37.5699 21.5704 37.3872C21.4948 37.2045 21.475 37.0034 21.5135 36.8094C21.5521 36.6154 21.6474 36.4373 21.7872 36.2974C21.9271 36.1576 22.1053 36.0623 22.2992 36.0237C22.4932 35.9851 22.6943 36.005 22.877 36.0806C23.0597 36.1563 23.2159 36.2845 23.3258 36.4489C23.4357 36.6134 23.4943 36.8067 23.4943 37.0045C23.4943 37.2697 23.389 37.5241 23.2014 37.7116C23.0139 37.8992 22.7595 38.0045 22.4943 38.0045ZM30.4943 22.0045C30.6921 22.0045 30.8854 22.0632 31.0499 22.1731C31.2143 22.2829 31.3425 22.4391 31.4182 22.6218C31.4939 22.8046 31.5137 23.0056 31.4751 23.1996C31.4365 23.3936 31.3413 23.5718 31.2014 23.7116C31.0616 23.8515 30.8834 23.9467 30.6894 23.9853C30.4954 24.0239 30.2944 24.0041 30.1116 23.9284C29.9289 23.8527 29.7727 23.7245 29.6629 23.5601C29.553 23.3956 29.4943 23.2023 29.4943 23.0045C29.4943 22.7393 29.5997 22.485 29.7872 22.2974C29.9748 22.1099 30.2291 22.0045 30.4943 22.0045ZM30.4943 34.0045C30.0988 34.0045 29.7121 33.8872 29.3832 33.6675C29.0543 33.4477 28.7979 33.1353 28.6466 32.7699C28.4952 32.4044 28.4556 32.0023 28.5328 31.6143C28.6099 31.2264 28.8004 30.87 29.0801 30.5903C29.3598 30.3106 29.7162 30.1201 30.1041 30.0429C30.4921 29.9658 30.8942 30.0054 31.2597 30.1568C31.6251 30.3081 31.9375 30.5645 32.1573 30.8934C32.377 31.2223 32.4943 31.609 32.4943 32.0045C32.4943 32.535 32.2836 33.0437 31.9085 33.4187C31.5335 33.7938 31.0248 34.0045 30.4943 34.0045ZM38.4943 38.0045C38.2965 38.0045 38.1032 37.9459 37.9388 37.836C37.7743 37.7261 37.6461 37.5699 37.5704 37.3872C37.4948 37.2045 37.475 37.0034 37.5135 36.8094C37.5521 36.6154 37.6474 36.4373 37.7872 36.2974C37.9271 36.1576 38.1053 36.0623 38.2992 36.0237C38.4932 35.9851 38.6943 36.005 38.877 36.0806C39.0597 36.1563 39.2159 36.2845 39.3258 36.4489C39.4357 36.6134 39.4943 36.8067 39.4943 37.0045C39.4943 37.2697 39.389 37.5241 39.2014 37.7116C39.0139 37.8992 38.7595 38.0045 38.4943 38.0045Z" fill="white"></path><rect x="1" y="0.5" width="59" height="59" rx="29.5" stroke="#F98012"></rect></svg> 